<svg width="48" height="48" viewBox="0 0 48 48" fill="none" xmlns="http://www.w3.org/2000/svg">
    <g clip-path="url(#clip0_703_58722)">
        <g clip-path="url(#clip1_703_58722)">
            <ellipse cx="20.3925" cy="19.7343" rx="18.4942" ry="18.1073" fill="url(#paint0_linear_703_58722)"/>
            <ellipse rx="18.1145" ry="18.6959" transform="matrix(0.46143 0.887177 -0.885216 0.465179 24.6223 18.2594)" fill="url(#paint1_linear_703_58722)"/>
            <ellipse rx="18.1882" ry="18.4147" transform="matrix(-0.462972 0.886373 -0.894178 -0.447712 28.6833 20.8404)" fill="url(#paint2_linear_703_58722)"/>
            <ellipse rx="18.1764" ry="18.4941" transform="matrix(0.0144529 -0.999896 0.999904 0.0138547 22.0075 29.821)" fill="url(#paint3_linear_703_58722)"/>
            <ellipse rx="18.476" ry="18.1398" transform="matrix(-0.997436 -0.0715686 0.0866642 -0.996238 29.4921 26.987)" fill="url(#paint4_linear_703_58722)"/>
            <ellipse rx="18.5261" ry="18.1433" transform="matrix(0.954666 -0.29768 0.309329 0.950955 18.5601 25.2088)" fill="url(#paint5_linear_703_58722)"/>
        </g>
        <path d="M9.5 29.4574V17.2098H13.6743V19.5381H13.8017C14.0566 18.7726 14.4921 18.1666 15.1082 17.7201C15.7242 17.2736 16.4571 17.0503 17.3068 17.0503C18.1672 17.0503 18.908 17.2789 19.5294 17.736C20.1507 18.1879 20.5251 18.7886 20.6526 19.5381H20.7801C20.9872 18.7886 21.428 18.1879 22.1024 17.736C22.7769 17.2789 23.5682 17.0503 24.4763 17.0503C25.65 17.0503 26.6006 17.4277 27.3282 18.1826C28.0611 18.9374 28.4275 19.9421 28.4275 21.1966V29.4574H24.0302V22.313C24.0302 21.7761 23.8948 21.3561 23.624 21.0531C23.3531 20.7448 22.9893 20.5906 22.5326 20.5906C22.0812 20.5906 21.7227 20.7448 21.4572 21.0531C21.1969 21.3561 21.0668 21.7761 21.0668 22.313V29.4574H16.8607V22.313C16.8607 21.7761 16.7253 21.3561 16.4544 21.0531C16.1836 20.7448 15.8198 20.5906 15.3631 20.5906C15.0604 20.5906 14.8001 20.6597 14.5824 20.7979C14.3647 20.9362 14.1947 21.1355 14.0726 21.396C13.9557 21.6511 13.8973 21.9568 13.8973 22.313V29.4574H9.5Z" fill="#1A204D"/>
        <path fill-rule="evenodd" clip-rule="evenodd" d="M29.3702 33.75H31.7154V27.1477H31.7792C31.9491 27.5624 32.1907 27.9345 32.5041 28.2641C32.8227 28.5883 33.2051 28.8462 33.6512 29.0375C34.1026 29.2236 34.6151 29.3166 35.1887 29.3166C36.0596 29.3166 36.8589 29.088 37.5865 28.6309C38.3194 28.1737 38.9035 27.48 39.339 26.5497C39.7798 25.6194 40.0002 24.4473 40.0002 23.0333C40.0002 21.5555 39.7692 20.3541 39.3072 19.4292C38.8504 18.5042 38.2556 17.8265 37.5227 17.3959C36.7952 16.9653 36.0278 16.75 35.2205 16.75C34.6151 16.75 34.084 16.8563 33.6273 17.0689C33.1706 17.2763 32.7882 17.5553 32.4802 17.9062C32.1721 18.2517 31.9385 18.6318 31.7792 19.0464H31.6836V16.9095H27.3181V17.1715C27.6696 17.351 27.9872 17.588 28.2708 17.8823C29.0037 18.6371 29.3702 19.6418 29.3702 20.8963V33.75ZM31.8508 24.5802C31.6968 24.1443 31.6198 23.6287 31.6198 23.0333C31.6198 22.4273 31.6968 21.909 31.8508 21.4784C32.0102 21.0425 32.2332 20.7103 32.52 20.4817C32.8121 20.2478 33.16 20.1309 33.5636 20.1309C33.9672 20.1309 34.3097 20.2478 34.5912 20.4817C34.878 20.7103 35.0957 21.0425 35.2444 21.4784C35.3984 21.909 35.4754 22.4273 35.4754 23.0333C35.4754 23.6393 35.3984 24.1603 35.2444 24.5962C35.0957 25.0267 34.878 25.359 34.5912 25.5929C34.3097 25.8214 33.9672 25.9357 33.5636 25.9357C33.16 25.9357 32.8121 25.8188 32.52 25.5849C32.2332 25.3457 32.0102 25.0108 31.8508 24.5802Z" fill="#1A204D"/>
    </g>
    <defs>
        <linearGradient id="paint0_linear_703_58722" x1="28.1964" y1="-2.14104" x2="-4.92788" y2="50.5847" gradientUnits="userSpaceOnUse">
            <stop offset="0.20625" stop-color="#D5CEFF" stop-opacity="0"/>
            <stop offset="1" stop-color="#0D25FF"/>
        </linearGradient>
        <linearGradient id="paint1_linear_703_58722" x1="25.7582" y1="-3.89047" x2="-9.19454" y2="48.8878" gradientUnits="userSpaceOnUse">
            <stop offset="0.20625" stop-color="#D5CEFF" stop-opacity="0"/>
            <stop offset="1" stop-color="#0D25FF"/>
        </linearGradient>
        <linearGradient id="paint2_linear_703_58722" x1="25.863" y1="-3.83196" x2="-8.30144" y2="48.7569" gradientUnits="userSpaceOnUse">
            <stop offset="0.20625" stop-color="#D5CEFF" stop-opacity="0"/>
            <stop offset="1" stop-color="#0D25FF"/>
        </linearGradient>
        <linearGradient id="paint3_linear_703_58722" x1="25.8462" y1="-3.84849" x2="-8.53448" y2="48.8116" gradientUnits="userSpaceOnUse">
            <stop offset="0.20625" stop-color="#D5CEFF" stop-opacity="0"/>
            <stop offset="1" stop-color="#0D25FF"/>
        </linearGradient>
        <linearGradient id="paint4_linear_703_58722" x1="26.2722" y1="-3.77475" x2="-6.95131" y2="48.9624" gradientUnits="userSpaceOnUse">
            <stop offset="0.20625" stop-color="#D5CEFF" stop-opacity="0"/>
            <stop offset="1" stop-color="#0D25FF"/>
        </linearGradient>
        <linearGradient id="paint5_linear_703_58722" x1="26.3435" y1="-3.77548" x2="-6.85039" y2="49.0471" gradientUnits="userSpaceOnUse">
            <stop offset="0.20625" stop-color="#D5CEFF" stop-opacity="0"/>
            <stop offset="1" stop-color="#0D25FF"/>
        </linearGradient>
        <clipPath id="clip0_703_58722">
            <rect width="48" height="48" fill="white"/>
        </clipPath>
        <clipPath id="clip1_703_58722">
            <rect width="48" height="48" fill="white"/>
        </clipPath>
    </defs>
</svg>
