<svg width="36" height="36" viewBox="0 0 36 36" fill="none" xmlns="http://www.w3.org/2000/svg">
    <g clip-path="url(#clip0_703_58737)">
        <g clip-path="url(#clip1_703_58737)">
            <ellipse cx="15.2944" cy="14.8007" rx="13.8706" ry="13.5805" fill="url(#paint0_linear_703_58737)"/>
            <ellipse rx="13.5859" ry="14.0219" transform="matrix(0.46143 0.887177 -0.885216 0.465179 18.4667 13.6944)" fill="url(#paint1_linear_703_58737)"/>
            <ellipse rx="13.6411" ry="13.811" transform="matrix(-0.462972 0.886373 -0.894178 -0.447712 21.5125 15.6305)" fill="url(#paint2_linear_703_58737)"/>
            <ellipse rx="13.6323" ry="13.8706" transform="matrix(0.0144529 -0.999896 0.999904 0.0138547 16.5056 22.3655)" fill="url(#paint3_linear_703_58737)"/>
            <ellipse rx="13.857" ry="13.6048" transform="matrix(-0.997436 -0.0715686 0.0866642 -0.996238 22.1191 20.2403)" fill="url(#paint4_linear_703_58737)"/>
            <ellipse rx="13.8946" ry="13.6075" transform="matrix(0.954666 -0.29768 0.309329 0.950955 13.92 18.9065)" fill="url(#paint5_linear_703_58737)"/>
        </g>
        <path d="M7.125 22.0929V12.9072H10.2557V14.6535H10.3513C10.5425 14.0793 10.8691 13.6248 11.3311 13.2899C11.7932 12.955 12.3428 12.7876 12.9801 12.7876C13.6254 12.7876 14.181 12.959 14.647 13.3019C15.113 13.6408 15.3939 14.0913 15.4894 14.6535H15.585C15.7404 14.0913 16.071 13.6408 16.5768 13.3019C17.0827 12.959 17.6762 12.7876 18.3573 12.7876C19.2375 12.7876 19.9505 13.0707 20.4962 13.6368C21.0458 14.2029 21.3207 14.9565 21.3207 15.8974V22.0929H18.0227V16.7346C18.0227 16.3319 17.9211 16.017 17.718 15.7897C17.5148 15.5585 17.242 15.4429 16.8995 15.4429C16.5609 15.4429 16.292 15.5585 16.0929 15.7897C15.8977 16.017 15.8001 16.3319 15.8001 16.7346V22.0929H12.6455V16.7346C12.6455 16.3319 12.544 16.017 12.3408 15.7897C12.1377 15.5585 11.8649 15.4429 11.5223 15.4429C11.2953 15.4429 11.1001 15.4947 10.9368 15.5983C10.7735 15.702 10.646 15.8515 10.5544 16.0469C10.4668 16.2382 10.423 16.4675 10.423 16.7346V22.0929H7.125Z" fill="#1A204D"/>
        <path fill-rule="evenodd" clip-rule="evenodd" d="M22.0276 25.3125H23.7865V20.3608H23.8343C23.9618 20.6718 24.143 20.9509 24.378 21.1981C24.617 21.4413 24.9038 21.6346 25.2383 21.7781C25.5769 21.9177 25.9613 21.9875 26.3914 21.9875C27.0447 21.9875 27.6441 21.816 28.1898 21.4731C28.7395 21.1303 29.1776 20.61 29.5042 19.9123C29.8348 19.2146 30.0001 18.3355 30.0001 17.275C30.0001 16.1666 29.8268 15.2656 29.4803 14.5719C29.1378 13.8782 28.6917 13.3698 28.142 13.0469C27.5963 12.724 27.0208 12.5625 26.4153 12.5625C25.9613 12.5625 25.563 12.6422 25.2204 12.8017C24.8779 12.9572 24.5911 13.1665 24.3601 13.4296C24.1291 13.6888 23.9538 13.9739 23.8343 14.2848H23.7626V12.6821H20.4885V12.8786C20.7521 13.0133 20.9903 13.191 21.2031 13.4117C21.7527 13.9778 22.0276 14.7314 22.0276 15.6723V25.3125ZM23.8881 18.4352C23.7726 18.1082 23.7148 17.7215 23.7148 17.275C23.7148 16.8205 23.7726 16.4318 23.8881 16.1088C24.0076 15.7819 24.1749 15.5327 24.3899 15.3613C24.609 15.1859 24.8699 15.0981 25.1726 15.0981C25.4753 15.0981 25.7322 15.1859 25.9433 15.3613C26.1584 15.5327 26.3217 15.7819 26.4333 16.1088C26.5488 16.4318 26.6065 16.8205 26.6065 17.275C26.6065 17.7295 26.5488 18.1202 26.4333 18.4471C26.3217 18.7701 26.1584 19.0192 25.9433 19.1947C25.7322 19.3661 25.4753 19.4518 25.1726 19.4518C24.8699 19.4518 24.609 19.3641 24.3899 19.1887C24.1749 19.0093 24.0076 18.7581 23.8881 18.4352Z" fill="#1A204D"/>
    </g>
    <defs>
        <linearGradient id="paint0_linear_703_58737" x1="21.1473" y1="-1.60578" x2="-3.69594" y2="37.9385" gradientUnits="userSpaceOnUse">
            <stop offset="0.20625" stop-color="#D5CEFF" stop-opacity="0"/>
            <stop offset="1" stop-color="#0D25FF"/>
        </linearGradient>
        <linearGradient id="paint1_linear_703_58737" x1="19.3186" y1="-2.91786" x2="-6.8959" y2="36.6658" gradientUnits="userSpaceOnUse">
            <stop offset="0.20625" stop-color="#D5CEFF" stop-opacity="0"/>
            <stop offset="1" stop-color="#0D25FF"/>
        </linearGradient>
        <linearGradient id="paint2_linear_703_58737" x1="19.3972" y1="-2.87397" x2="-6.22608" y2="36.5677" gradientUnits="userSpaceOnUse">
            <stop offset="0.20625" stop-color="#D5CEFF" stop-opacity="0"/>
            <stop offset="1" stop-color="#0D25FF"/>
        </linearGradient>
        <linearGradient id="paint3_linear_703_58737" x1="19.3846" y1="-2.88637" x2="-6.40085" y2="36.6087" gradientUnits="userSpaceOnUse">
            <stop offset="0.20625" stop-color="#D5CEFF" stop-opacity="0"/>
            <stop offset="1" stop-color="#0D25FF"/>
        </linearGradient>
        <linearGradient id="paint4_linear_703_58737" x1="19.7042" y1="-2.83106" x2="-5.21348" y2="36.7218" gradientUnits="userSpaceOnUse">
            <stop offset="0.20625" stop-color="#D5CEFF" stop-opacity="0"/>
            <stop offset="1" stop-color="#0D25FF"/>
        </linearGradient>
        <linearGradient id="paint5_linear_703_58737" x1="19.7576" y1="-2.83161" x2="-5.1378" y2="36.7854" gradientUnits="userSpaceOnUse">
            <stop offset="0.20625" stop-color="#D5CEFF" stop-opacity="0"/>
            <stop offset="1" stop-color="#0D25FF"/>
        </linearGradient>
        <clipPath id="clip0_703_58737">
            <rect width="36" height="36" fill="white"/>
        </clipPath>
        <clipPath id="clip1_703_58737">
            <rect width="36" height="36" fill="white"/>
        </clipPath>
    </defs>
</svg>
