<svg width="72" height="72" viewBox="0 0 72 72" fill="none" xmlns="http://www.w3.org/2000/svg">
    <g clip-path="url(#clip0_703_58694)">
        <g clip-path="url(#clip1_703_58694)">
            <ellipse cx="30.5887" cy="29.6019" rx="27.7413" ry="27.161" fill="url(#paint0_linear_703_58694)"/>
            <ellipse rx="27.1717" ry="28.0438" transform="matrix(0.46143 0.887177 -0.885216 0.465179 36.9333 27.3888)" fill="url(#paint1_linear_703_58694)"/>
            <ellipse rx="27.2823" ry="27.622" transform="matrix(-0.462972 0.886373 -0.894178 -0.447712 43.0249 31.2609)" fill="url(#paint2_linear_703_58694)"/>
            <ellipse rx="27.2646" ry="27.7412" transform="matrix(0.0144529 -0.999896 0.999904 0.0138547 33.0112 44.7315)" fill="url(#paint3_linear_703_58694)"/>
            <ellipse rx="27.714" ry="27.2097" transform="matrix(-0.997436 -0.0715686 0.0866642 -0.996238 44.2381 40.4805)" fill="url(#paint4_linear_703_58694)"/>
            <ellipse rx="27.7892" ry="27.2149" transform="matrix(0.954666 -0.29768 0.309329 0.950955 27.8401 37.8135)" fill="url(#paint5_linear_703_58694)"/>
        </g>
        <path d="M14.25 44.1859V25.8144H20.5114V29.3069H20.7026C21.0849 28.1587 21.7382 27.2497 22.6622 26.5799C23.5863 25.9101 24.6856 25.5752 25.9602 25.5752C27.2507 25.5752 28.362 25.9181 29.2941 26.6038C30.2261 27.2816 30.7877 28.1826 30.9789 29.3069H31.1701C31.4808 28.1826 32.1419 27.2816 33.1536 26.6038C34.1653 25.9181 35.3523 25.5752 36.7145 25.5752C38.475 25.5752 39.901 26.1413 40.9923 27.2736C42.0917 28.4059 42.6413 29.9129 42.6413 31.7947V44.1859H36.0454V33.4692C36.0454 32.6638 35.8422 32.0339 35.4359 31.5794C35.0297 31.1169 34.484 30.8857 33.7989 30.8857C33.1218 30.8857 32.5841 31.1169 32.1858 31.5794C31.7954 32.0339 31.6003 32.6638 31.6003 33.4692V44.1859H25.2911V33.4692C25.2911 32.6638 25.0879 32.0339 24.6817 31.5794C24.2754 31.1169 23.7297 30.8857 23.0446 30.8857C22.5905 30.8857 22.2002 30.9894 21.8736 31.1967C21.547 31.404 21.2921 31.703 21.1088 32.0937C20.9336 32.4765 20.846 32.935 20.846 33.4692V44.1859H14.25Z" fill="#1A204D"/>
        <path fill-rule="evenodd" clip-rule="evenodd" d="M44.0551 50.625H47.573V40.7216H47.6686C47.9235 41.3436 48.286 41.9017 48.756 42.3961C49.234 42.8825 49.8075 43.2692 50.4767 43.5563C51.1538 43.8354 51.9225 43.9749 52.7829 43.9749C54.0893 43.9749 55.2882 43.632 56.3796 42.9463C57.4789 42.2606 58.3552 41.22 59.0084 39.8246C59.6696 38.4292 60.0002 36.671 60.0002 34.55C60.0002 32.3333 59.6537 30.5312 58.9606 29.1438C58.2755 27.7563 57.3833 26.7397 56.284 26.0938C55.1926 25.4479 54.0415 25.125 52.8307 25.125C51.9225 25.125 51.1259 25.2845 50.4408 25.6034C49.7557 25.9144 49.1822 26.333 48.7201 26.8593C48.2581 27.3776 47.9076 27.9477 47.6686 28.5697H47.5252V25.3642H40.9771V25.7572C41.5043 26.0266 41.9806 26.382 42.4061 26.8234C43.5054 27.9557 44.0551 29.4627 44.0551 31.3445V50.625ZM47.7761 36.8703C47.5451 36.2165 47.4296 35.443 47.4296 34.55C47.4296 33.6409 47.5451 32.8635 47.7761 32.2176C48.0151 31.5638 48.3497 31.0654 48.7799 30.7226C49.218 30.3717 49.7398 30.1963 50.3452 30.1963C50.9507 30.1963 51.4645 30.3717 51.8867 30.7226C52.3168 31.0654 52.6435 31.5638 52.8665 32.2176C53.0975 32.8635 53.213 33.6409 53.213 34.55C53.213 35.459 53.0975 36.2404 52.8665 36.8942C52.6435 37.5401 52.3168 38.0385 51.8867 38.3893C51.4645 38.7322 50.9507 38.9036 50.3452 38.9036C49.7398 38.9036 49.218 38.7282 48.7799 38.3773C48.3497 38.0185 48.0151 37.5162 47.7761 36.8703Z" fill="#1A204D"/>
    </g>
    <defs>
        <linearGradient id="paint0_linear_703_58694" x1="42.2946" y1="-3.21108" x2="-7.39188" y2="75.8775" gradientUnits="userSpaceOnUse">
            <stop offset="0.20625" stop-color="#D5CEFF" stop-opacity="0"/>
            <stop offset="1" stop-color="#0D25FF"/>
        </linearGradient>
        <linearGradient id="paint1_linear_703_58694" x1="38.6372" y1="-5.83571" x2="-13.7918" y2="73.3316" gradientUnits="userSpaceOnUse">
            <stop offset="0.20625" stop-color="#D5CEFF" stop-opacity="0"/>
            <stop offset="1" stop-color="#0D25FF"/>
        </linearGradient>
        <linearGradient id="paint2_linear_703_58694" x1="38.7945" y1="-5.74793" x2="-12.4522" y2="73.1354" gradientUnits="userSpaceOnUse">
            <stop offset="0.20625" stop-color="#D5CEFF" stop-opacity="0"/>
            <stop offset="1" stop-color="#0D25FF"/>
        </linearGradient>
        <linearGradient id="paint3_linear_703_58694" x1="38.7693" y1="-5.77273" x2="-12.8017" y2="73.2174" gradientUnits="userSpaceOnUse">
            <stop offset="0.20625" stop-color="#D5CEFF" stop-opacity="0"/>
            <stop offset="1" stop-color="#0D25FF"/>
        </linearGradient>
        <linearGradient id="paint4_linear_703_58694" x1="39.4084" y1="-5.66213" x2="-10.427" y2="73.4436" gradientUnits="userSpaceOnUse">
            <stop offset="0.20625" stop-color="#D5CEFF" stop-opacity="0"/>
            <stop offset="1" stop-color="#0D25FF"/>
        </linearGradient>
        <linearGradient id="paint5_linear_703_58694" x1="39.5152" y1="-5.66323" x2="-10.2756" y2="73.5707" gradientUnits="userSpaceOnUse">
            <stop offset="0.20625" stop-color="#D5CEFF" stop-opacity="0"/>
            <stop offset="1" stop-color="#0D25FF"/>
        </linearGradient>
        <clipPath id="clip0_703_58694">
            <rect width="72" height="72" fill="white"/>
        </clipPath>
        <clipPath id="clip1_703_58694">
            <rect width="72" height="72" fill="white"/>
        </clipPath>
    </defs>
</svg>
