<svg width="96" height="96" viewBox="0 0 96 96" fill="none" xmlns="http://www.w3.org/2000/svg">
    <g clip-path="url(#clip0_709_58765)">
        <g clip-path="url(#clip1_709_58765)">
            <ellipse cx="40.785" cy="39.469" rx="36.9884" ry="36.2146" fill="url(#paint0_linear_709_58765)"/>
            <ellipse rx="36.229" ry="37.3918" transform="matrix(0.46143 0.887177 -0.885216 0.465179 49.2444 36.5183)" fill="url(#paint1_linear_709_58765)"/>
            <ellipse rx="36.3764" ry="36.8293" transform="matrix(-0.462972 0.886373 -0.894178 -0.447712 57.3667 41.6809)" fill="url(#paint2_linear_709_58765)"/>
            <ellipse rx="36.3527" ry="36.9882" transform="matrix(0.0144529 -0.999896 0.999904 0.0138547 44.0151 59.642)" fill="url(#paint3_linear_709_58765)"/>
            <ellipse rx="36.952" ry="36.2795" transform="matrix(-0.997436 -0.0715686 0.0866642 -0.996238 58.984 53.9741)" fill="url(#paint4_linear_709_58765)"/>
            <ellipse rx="37.0522" ry="36.2866" transform="matrix(0.954666 -0.29768 0.309329 0.950955 37.12 50.4182)" fill="url(#paint5_linear_709_58765)"/>
        </g>
        <path d="M19 58.9148V34.4195H27.3485V39.0762H27.6034C28.1133 37.5452 28.9842 36.3332 30.2163 35.4402C31.4484 34.5471 32.9142 34.1006 34.6136 34.1006C36.3343 34.1006 37.816 34.5577 39.0587 35.4721C40.3015 36.3758 41.0503 37.5771 41.3052 39.0762H41.5601C41.9743 37.5771 42.8559 36.3758 44.2049 35.4721C45.5538 34.5577 47.1364 34.1006 48.9527 34.1006C51.3 34.1006 53.2013 34.8554 54.6564 36.3651C56.1222 37.8748 56.8551 39.8842 56.8551 42.3933V58.9148H48.0605V44.6259C48.0605 43.5521 47.7896 42.7122 47.2479 42.1062C46.7062 41.4896 45.9787 41.1813 45.0652 41.1813C44.1624 41.1813 43.4454 41.4896 42.9143 42.1062C42.3939 42.7122 42.1337 43.5521 42.1337 44.6259V58.9148H33.7214V44.6259C33.7214 43.5521 33.4506 42.7122 32.9089 42.1062C32.3672 41.4896 31.6396 41.1813 30.7262 41.1813C30.1207 41.1813 29.6003 41.3195 29.1648 41.5959C28.7293 41.8723 28.3894 42.271 28.1451 42.792C27.9115 43.3023 27.7946 43.9136 27.7946 44.6259V58.9148H19Z" fill="#1A204D"/>
        <path fill-rule="evenodd" clip-rule="evenodd" d="M58.7402 67.5H63.4307V54.2955H63.5582C63.8981 55.1248 64.3814 55.869 65.008 56.5281C65.6453 57.1767 66.4101 57.6923 67.3023 58.075C68.2051 58.4472 69.2301 58.6332 70.3772 58.6332C72.1191 58.6332 73.7177 58.176 75.1728 57.2617C76.6386 56.3474 77.807 54.96 78.6779 53.0994C79.5595 51.2389 80.0003 48.8946 80.0003 46.0666C80.0003 43.111 79.5383 40.7083 78.6142 38.8583C77.7007 37.0084 76.5111 35.6529 75.0454 34.7917C73.5902 33.9306 72.0554 33.5 70.4409 33.5C69.2301 33.5 68.1679 33.7126 67.2545 34.1379C66.341 34.5525 65.5763 35.1107 64.9602 35.8124C64.3442 36.5034 63.8768 37.2636 63.5582 38.0929H63.367V33.8189H54.6361V34.343C55.3391 34.7021 55.9742 35.1759 56.5415 35.7645C58.0073 37.2742 58.7402 39.2836 58.7402 41.7927V67.5ZM63.7016 49.1604C63.3936 48.2886 63.2395 47.2573 63.2395 46.0666C63.2395 44.8546 63.3936 43.818 63.7016 42.9568C64.0202 42.0851 64.4663 41.4206 65.0399 40.9634C65.6241 40.4956 66.3198 40.2617 67.127 40.2617C67.9343 40.2617 68.6193 40.4956 69.1823 40.9634C69.7558 41.4206 70.1913 42.0851 70.4887 42.9568C70.7968 43.818 70.9508 44.8546 70.9508 46.0666C70.9508 47.2786 70.7968 48.3205 70.4887 49.1923C70.1913 50.0535 69.7558 50.7179 69.1823 51.1857C68.6193 51.6429 67.9343 51.8715 67.127 51.8715C66.3198 51.8715 65.6241 51.6376 65.0399 51.1698C64.4663 50.6914 64.0202 50.0216 63.7016 49.1604Z" fill="#1A204D"/>
    </g>
    <defs>
        <linearGradient id="paint0_linear_709_58765" x1="56.3929" y1="-4.2816" x2="-9.85575" y2="101.17" gradientUnits="userSpaceOnUse">
            <stop offset="0.20625" stop-color="#D5CEFF" stop-opacity="0"/>
            <stop offset="1" stop-color="#0D25FF"/>
        </linearGradient>
        <linearGradient id="paint1_linear_709_58765" x1="51.5163" y1="-7.78095" x2="-18.3891" y2="97.7755" gradientUnits="userSpaceOnUse">
            <stop offset="0.20625" stop-color="#D5CEFF" stop-opacity="0"/>
            <stop offset="1" stop-color="#0D25FF"/>
        </linearGradient>
        <linearGradient id="paint2_linear_709_58765" x1="51.726" y1="-7.66391" x2="-16.6029" y2="97.5139" gradientUnits="userSpaceOnUse">
            <stop offset="0.20625" stop-color="#D5CEFF" stop-opacity="0"/>
            <stop offset="1" stop-color="#0D25FF"/>
        </linearGradient>
        <linearGradient id="paint3_linear_709_58765" x1="51.6923" y1="-7.69698" x2="-17.069" y2="97.6233" gradientUnits="userSpaceOnUse">
            <stop offset="0.20625" stop-color="#D5CEFF" stop-opacity="0"/>
            <stop offset="1" stop-color="#0D25FF"/>
        </linearGradient>
        <linearGradient id="paint4_linear_709_58765" x1="52.5445" y1="-7.5495" x2="-13.9026" y2="97.9248" gradientUnits="userSpaceOnUse">
            <stop offset="0.20625" stop-color="#D5CEFF" stop-opacity="0"/>
            <stop offset="1" stop-color="#0D25FF"/>
        </linearGradient>
        <linearGradient id="paint5_linear_709_58765" x1="52.6869" y1="-7.55097" x2="-13.7008" y2="98.0943" gradientUnits="userSpaceOnUse">
            <stop offset="0.20625" stop-color="#D5CEFF" stop-opacity="0"/>
            <stop offset="1" stop-color="#0D25FF"/>
        </linearGradient>
        <clipPath id="clip0_709_58765">
            <rect width="96" height="96" fill="white"/>
        </clipPath>
        <clipPath id="clip1_709_58765">
            <rect width="96" height="96" fill="white"/>
        </clipPath>
    </defs>
</svg>
