<svg width="144" height="144" viewBox="0 0 144 144" fill="none" xmlns="http://www.w3.org/2000/svg">
    <g clip-path="url(#clip0_703_58664)">
        <g clip-path="url(#clip1_703_58664)">
            <ellipse cx="61.1775" cy="59.2033" rx="55.4826" ry="54.322" fill="url(#paint0_linear_703_58664)"/>
            <ellipse rx="54.3434" ry="56.0877" transform="matrix(0.46143 0.887177 -0.885216 0.465179 73.8667 54.7777)" fill="url(#paint1_linear_703_58664)"/>
            <ellipse rx="54.5646" ry="55.244" transform="matrix(-0.462972 0.886373 -0.894178 -0.447712 86.0499 62.5213)" fill="url(#paint2_linear_703_58664)"/>
            <ellipse rx="54.5291" ry="55.4824" transform="matrix(0.0144529 -0.999896 0.999904 0.0138547 66.0226 89.463)" fill="url(#paint3_linear_703_58664)"/>
            <ellipse rx="55.428" ry="54.4193" transform="matrix(-0.997436 -0.0715686 0.0866642 -0.996238 88.4761 80.9611)" fill="url(#paint4_linear_703_58664)"/>
            <ellipse rx="55.5783" ry="54.4299" transform="matrix(0.954666 -0.29768 0.309329 0.950955 55.6801 75.627)" fill="url(#paint5_linear_703_58664)"/>
        </g>
        <path d="M28.5 88.3723V51.6293H41.0228V58.6143H41.4051C42.1699 56.3179 43.4763 54.4998 45.3245 53.1603C47.1726 51.8207 49.3713 51.1509 51.9205 51.1509C54.5015 51.1509 56.724 51.8366 58.5881 53.2081C60.4522 54.5636 61.5754 56.3657 61.9578 58.6143H62.3402C62.9615 56.3657 64.2839 54.5636 66.3073 53.2081C68.3307 51.8366 70.7046 51.1509 73.429 51.1509C76.9501 51.1509 79.8019 52.2831 81.9847 54.5477C84.1833 56.8122 85.2826 59.8263 85.2826 63.5899V88.3723H72.0907V66.9389C72.0907 65.3282 71.6844 64.0683 70.8719 63.1593C70.0594 62.2344 68.968 61.7719 67.5978 61.7719C66.2436 61.7719 65.1681 62.2344 64.3715 63.1593C63.5908 64.0683 63.2005 65.3282 63.2005 66.9389V88.3723H50.5821V66.9389C50.5821 65.3282 50.1759 64.0683 49.3633 63.1593C48.5508 62.2344 47.4594 61.7719 46.0892 61.7719C45.1811 61.7719 44.4004 61.9792 43.7472 62.3938C43.094 62.8085 42.5841 63.4065 42.2177 64.1879C41.8672 64.9534 41.6919 65.8704 41.6919 66.9389V88.3723H28.5Z" fill="#1A204D"/>
        <path fill-rule="evenodd" clip-rule="evenodd" d="M88.1103 101.25H95.1461V81.4432H95.3373C95.8472 82.6871 96.5721 83.8035 97.5121 84.7922C98.468 85.765 99.6152 86.5385 100.953 87.1126C102.308 87.6707 103.845 87.9498 105.566 87.9498C108.179 87.9498 110.577 87.2641 112.759 85.8926C114.958 84.5211 116.71 82.44 118.017 79.6492C119.339 76.8583 120 73.3419 120 69.0999C120 64.6665 119.307 61.0624 117.921 58.2875C116.551 55.5127 114.767 53.4794 112.568 52.1876C110.385 50.8959 108.083 50.25 105.661 50.25C103.845 50.25 102.252 50.5689 100.882 51.2068C99.5116 51.8288 98.3645 52.666 97.4404 53.7186C96.5163 54.7552 95.8153 55.8954 95.3373 57.1393H95.0506V50.7284H81.9542V51.5145C83.0086 52.0531 83.9614 52.7639 84.8123 53.6468C87.011 55.9113 88.1103 58.9254 88.1103 62.689V101.25ZM95.5524 73.7406C95.0904 72.4329 94.8594 70.886 94.8594 69.0999C94.8594 67.2819 95.0904 65.727 95.5524 64.4353C96.0304 63.1276 96.6995 62.1309 97.5599 61.4451C98.4362 60.7434 99.4797 60.3926 100.691 60.3926C101.901 60.3926 102.929 60.7434 103.773 61.4451C104.634 62.1309 105.287 63.1276 105.733 64.4353C106.195 65.727 106.426 67.2819 106.426 69.0999C106.426 70.9179 106.195 72.4808 105.733 73.7885C105.287 75.0802 104.634 76.0769 103.773 76.7786C102.929 77.4644 101.901 77.8072 100.691 77.8072C99.4797 77.8072 98.4362 77.4564 97.5599 76.7547C96.6995 76.0371 96.0304 75.0324 95.5524 73.7406Z" fill="#1A204D"/>
    </g>
    <defs>
        <linearGradient id="paint0_linear_703_58664" x1="84.5893" y1="-6.42265" x2="-14.7836" y2="151.754" gradientUnits="userSpaceOnUse">
            <stop offset="0.20625" stop-color="#D5CEFF" stop-opacity="0"/>
            <stop offset="1" stop-color="#0D25FF"/>
        </linearGradient>
        <linearGradient id="paint1_linear_703_58664" x1="77.2745" y1="-11.6714" x2="-27.5836" y2="146.663" gradientUnits="userSpaceOnUse">
            <stop offset="0.20625" stop-color="#D5CEFF" stop-opacity="0"/>
            <stop offset="1" stop-color="#0D25FF"/>
        </linearGradient>
        <linearGradient id="paint2_linear_703_58664" x1="77.5889" y1="-11.4959" x2="-24.9043" y2="146.271" gradientUnits="userSpaceOnUse">
            <stop offset="0.20625" stop-color="#D5CEFF" stop-opacity="0"/>
            <stop offset="1" stop-color="#0D25FF"/>
        </linearGradient>
        <linearGradient id="paint3_linear_703_58664" x1="77.5385" y1="-11.5455" x2="-25.6034" y2="146.435" gradientUnits="userSpaceOnUse">
            <stop offset="0.20625" stop-color="#D5CEFF" stop-opacity="0"/>
            <stop offset="1" stop-color="#0D25FF"/>
        </linearGradient>
        <linearGradient id="paint4_linear_703_58664" x1="78.8167" y1="-11.3243" x2="-20.8539" y2="146.887" gradientUnits="userSpaceOnUse">
            <stop offset="0.20625" stop-color="#D5CEFF" stop-opacity="0"/>
            <stop offset="1" stop-color="#0D25FF"/>
        </linearGradient>
        <linearGradient id="paint5_linear_703_58664" x1="79.0304" y1="-11.3265" x2="-20.5512" y2="147.141" gradientUnits="userSpaceOnUse">
            <stop offset="0.20625" stop-color="#D5CEFF" stop-opacity="0"/>
            <stop offset="1" stop-color="#0D25FF"/>
        </linearGradient>
        <clipPath id="clip0_703_58664">
            <rect width="144" height="144" fill="white"/>
        </clipPath>
        <clipPath id="clip1_703_58664">
            <rect width="144" height="144" fill="white"/>
        </clipPath>
    </defs>
</svg>
