<svg width="192" height="192" viewBox="0 0 192 192" fill="none" xmlns="http://www.w3.org/2000/svg">
    <g clip-path="url(#clip0_698_58688)">
        <g clip-path="url(#clip1_698_58688)">
            <ellipse cx="81.57" cy="78.9376" rx="73.9768" ry="72.4293" fill="url(#paint0_linear_698_58688)"/>
            <ellipse rx="72.4579" ry="74.7835" transform="matrix(0.46143 0.887177 -0.885216 0.465179 98.4889 73.037)" fill="url(#paint1_linear_698_58688)"/>
            <ellipse rx="72.7528" ry="73.6587" transform="matrix(-0.462972 0.886373 -0.894178 -0.447712 114.733 83.3622)" fill="url(#paint2_linear_698_58688)"/>
            <ellipse rx="72.7055" ry="73.9765" transform="matrix(0.0144529 -0.999896 0.999904 0.0138547 88.0301 119.284)" fill="url(#paint3_linear_698_58688)"/>
            <ellipse rx="73.904" ry="72.5591" transform="matrix(-0.997436 -0.0715686 0.0866642 -0.996238 117.968 107.948)" fill="url(#paint4_linear_698_58688)"/>
            <ellipse rx="74.1044" ry="72.5732" transform="matrix(0.954666 -0.29768 0.309329 0.950955 74.2401 100.836)" fill="url(#paint5_linear_698_58688)"/>
        </g>
        <path d="M38 117.83V68.8391H54.697V78.1524H55.2069C56.2265 75.0905 57.9685 72.6665 60.4326 70.8803C62.8968 69.0942 65.8284 68.2012 69.2273 68.2012C72.6686 68.2012 75.632 69.1155 78.1175 70.9441C80.6029 72.7515 82.1005 75.1543 82.6104 78.1524H83.1202C83.9487 75.1543 85.7119 72.7515 88.4097 70.9441C91.1076 69.1155 94.2728 68.2012 97.9054 68.2012C102.6 68.2012 106.403 69.7109 109.313 72.7303C112.244 75.7496 113.71 79.7684 113.71 84.7865V117.83H96.121V89.2518C96.121 87.1042 95.5793 85.4244 94.4959 84.2124C93.4125 82.9792 91.9573 82.3625 90.1304 82.3625C88.3248 82.3625 86.8909 82.9792 85.8287 84.2124C84.7878 85.4244 84.2673 87.1042 84.2673 89.2518V117.83H67.4429V89.2518C67.4429 87.1042 66.9011 85.4244 65.8178 84.2124C64.7344 82.9792 63.2792 82.3625 61.4523 82.3625C60.2415 82.3625 59.2006 82.6389 58.3296 83.1918C57.4586 83.7446 56.7788 84.542 56.2903 85.5839C55.8229 86.6045 55.5892 87.8272 55.5892 89.2518V117.83H38Z" fill="#1A204D"/>
        <path fill-rule="evenodd" clip-rule="evenodd" d="M117.48 135H126.862V108.591H127.116C127.796 110.25 128.763 111.738 130.016 113.056C131.291 114.353 132.82 115.385 134.605 116.15C136.41 116.894 138.46 117.266 140.754 117.266C144.238 117.266 147.435 116.352 150.346 114.523C153.277 112.695 155.614 109.92 157.356 106.199C159.119 102.478 160.001 97.7892 160.001 92.1332C160.001 86.222 159.077 81.4165 157.228 77.7167C155.402 74.0169 153.022 71.3058 150.091 69.5835C147.18 67.8612 144.111 67 140.882 67C138.46 67 136.336 67.4253 134.509 68.2758C132.682 69.1051 131.153 70.2214 129.921 71.6248C128.688 73.0069 127.754 74.5272 127.116 76.1857H126.734V67.6379H109.272L109.272 68.6859C110.678 69.4042 111.948 70.3519 113.083 71.5291C116.015 74.5485 117.48 78.5672 117.48 83.5854V135ZM127.403 98.3208C126.787 96.5772 126.479 94.5147 126.479 92.1332C126.479 89.7092 126.787 87.636 127.403 85.9137C128.041 84.1701 128.933 82.8411 130.08 81.9268C131.248 80.9912 132.64 80.5234 134.254 80.5234C135.869 80.5234 137.239 80.9912 138.365 81.9268C139.512 82.8411 140.383 84.1701 140.978 85.9137C141.594 87.636 141.902 89.7092 141.902 92.1332C141.902 94.5572 141.594 96.641 140.978 98.3846C140.383 100.107 139.512 101.436 138.365 102.371C137.239 103.286 135.869 103.743 134.254 103.743C132.64 103.743 131.248 103.275 130.08 102.34C128.933 101.383 128.041 100.043 127.403 98.3208Z" fill="#1A204D"/>
    </g>
    <defs>
        <linearGradient id="paint0_linear_698_58688" x1="112.786" y1="-8.56369" x2="-19.7116" y2="202.339" gradientUnits="userSpaceOnUse">
            <stop offset="0.20625" stop-color="#D5CEFF" stop-opacity="0"/>
            <stop offset="1" stop-color="#0D25FF"/>
        </linearGradient>
        <linearGradient id="paint1_linear_698_58688" x1="103.033" y1="-15.5619" x2="-36.7782" y2="195.551" gradientUnits="userSpaceOnUse">
            <stop offset="0.20625" stop-color="#D5CEFF" stop-opacity="0"/>
            <stop offset="1" stop-color="#0D25FF"/>
        </linearGradient>
        <linearGradient id="paint2_linear_698_58688" x1="103.452" y1="-15.3278" x2="-33.2057" y2="195.028" gradientUnits="userSpaceOnUse">
            <stop offset="0.20625" stop-color="#D5CEFF" stop-opacity="0"/>
            <stop offset="1" stop-color="#0D25FF"/>
        </linearGradient>
        <linearGradient id="paint3_linear_698_58688" x1="103.385" y1="-15.394" x2="-34.1379" y2="195.247" gradientUnits="userSpaceOnUse">
            <stop offset="0.20625" stop-color="#D5CEFF" stop-opacity="0"/>
            <stop offset="1" stop-color="#0D25FF"/>
        </linearGradient>
        <linearGradient id="paint4_linear_698_58688" x1="105.089" y1="-15.099" x2="-27.8052" y2="195.85" gradientUnits="userSpaceOnUse">
            <stop offset="0.20625" stop-color="#D5CEFF" stop-opacity="0"/>
            <stop offset="1" stop-color="#0D25FF"/>
        </linearGradient>
        <linearGradient id="paint5_linear_698_58688" x1="105.374" y1="-15.1019" x2="-27.4016" y2="196.189" gradientUnits="userSpaceOnUse">
            <stop offset="0.20625" stop-color="#D5CEFF" stop-opacity="0"/>
            <stop offset="1" stop-color="#0D25FF"/>
        </linearGradient>
        <clipPath id="clip0_698_58688">
            <rect width="192" height="192" fill="white"/>
        </clipPath>
        <clipPath id="clip1_698_58688">
            <rect width="192" height="192" fill="white"/>
        </clipPath>
    </defs>
</svg>
