<svg width="32" height="32" viewBox="0 0 32 32" fill="none" xmlns="http://www.w3.org/2000/svg">
    <path d="M16 31C24.2843 31 31 24.2843 31 16C31 7.71573 24.2843 1 16 1C7.71573 1 1 7.71573 1 16C1 24.2843 7.71573 31 16 31Z" fill="#26A17B"/>
    <path fill-rule="evenodd" clip-rule="evenodd" d="M23 8H9V12H14V14.05C9.43552 14.2816 6 15.2905 6 16.5C6 17.7095 9.43552 18.7184 14 18.95V24.9999H18V18.95C22.5645 18.7184 26 17.7095 26 16.5C26 15.2905 22.5645 14.2816 18 14.05V12H23V8ZM14 14.5434V16.9566C14.6432 16.985 15.3126 17 16 17C16.6874 17 17.3568 16.985 18 16.9566V14.5434C22.008 14.7202 25 15.4172 25 16.25C25 17.2165 20.9706 18 16 18C11.0294 18 7 17.2165 7 16.25C7 15.4172 9.99202 14.7202 14 14.5434Z" fill="white"/>
</svg>
