<svg width="19" height="20" viewBox="0 0 19 20" fill="none" xmlns="http://www.w3.org/2000/svg">
    <path fill-rule="evenodd" clip-rule="evenodd" d="M6.49999 1.66665C6.49999 1.20641 6.12689 0.833313 5.66666 0.833313C5.20642 0.833313 4.83332 1.20641 4.83332 1.66665V2.49998H3.16666C1.78594 2.49998 0.666656 3.61927 0.666656 4.99998V16.6666C0.666656 18.0474 1.78594 19.1666 3.16666 19.1666H9.83332V17.5H3.16666C2.70642 17.5 2.33332 17.1269 2.33332 16.6666V9.16665H15.6667V10.8333H17.3333V4.99998C17.3333 3.61927 16.214 2.49998 14.8333 2.49998H13.1667V1.66665C13.1667 1.20641 12.7936 0.833313 12.3333 0.833313C11.8731 0.833313 11.5 1.20641 11.5 1.66665V2.49998H6.49999V1.66665ZM3.16666 4.16665H4.83332V4.99998C4.83332 5.46022 5.20642 5.83331 5.66666 5.83331C6.12689 5.83331 6.49999 5.46022 6.49999 4.99998V4.16665H11.5V4.99998C11.5 5.46022 11.8731 5.83331 12.3333 5.83331C12.7936 5.83331 13.1667 5.46022 13.1667 4.99998V4.16665H14.8333C15.2936 4.16665 15.6667 4.53974 15.6667 4.99998V7.49998H2.33332V4.99998C2.33332 4.53974 2.70642 4.16665 3.16666 4.16665Z" fill="currentColor"/>
    <path d="M16.2083 13.5416L16.4792 14.1666C16.5347 14.2778 16.625 14.3333 16.75 14.3333C16.875 14.3333 16.9653 14.2778 17.0208 14.1666L17.2917 13.5416L17.9167 13.2708C18.0278 13.2153 18.0833 13.125 18.0833 13C18.0833 12.875 18.0278 12.7847 17.9167 12.7291L17.2917 12.4583L17.0208 11.8333C16.9653 11.7222 16.875 11.6666 16.75 11.6666C16.625 11.6666 16.5347 11.7222 16.4792 11.8333L16.2083 12.4583L15.5833 12.7291C15.4722 12.7847 15.4167 12.875 15.4167 13C15.4167 13.125 15.4722 13.2153 15.5833 13.2708L16.2083 13.5416Z" fill="currentColor"/>
    <path d="M11.5417 16.5416L12.2083 18C12.2778 18.1666 12.4028 18.25 12.5833 18.25C12.7639 18.25 12.8889 18.1666 12.9583 18L13.625 16.5416L15.0833 15.875C15.25 15.8055 15.3333 15.6805 15.3333 15.5C15.3333 15.3194 15.25 15.1944 15.0833 15.125L13.625 14.4583L12.9583 13C12.8889 12.8333 12.7639 12.75 12.5833 12.75C12.4028 12.75 12.2778 12.8333 12.2083 13L11.5417 14.4583L10.0833 15.125C9.91666 15.1944 9.83332 15.3194 9.83332 15.5C9.83332 15.6805 9.91666 15.8055 10.0833 15.875L11.5417 16.5416Z" fill="currentColor"/>
    <path d="M16.2083 18.5416L16.4792 19.1666C16.5347 19.2778 16.625 19.3333 16.75 19.3333C16.875 19.3333 16.9653 19.2778 17.0208 19.1666L17.2917 18.5416L17.9167 18.2708C18.0278 18.2153 18.0833 18.125 18.0833 18C18.0833 17.875 18.0278 17.7847 17.9167 17.7291L17.2917 17.4583L17.0208 16.8333C16.9653 16.7222 16.875 16.6666 16.75 16.6666C16.625 16.6666 16.5347 16.7222 16.4792 16.8333L16.2083 17.4583L15.5833 17.7291C15.4722 17.7847 15.4167 17.875 15.4167 18C15.4167 18.125 15.4722 18.2153 15.5833 18.2708L16.2083 18.5416Z" fill="currentColor"/>
</svg>
