<svg width="19" height="12" viewBox="0 0 19 12" fill="none" xmlns="http://www.w3.org/2000/svg">
    <path d="M3.30114 11H0.318182L3.67898 0.818182H7.45739L10.8182 11H7.83523L5.60795 3.62216H5.52841L3.30114 11ZM2.74432 6.98295H8.35227V9.05114H2.74432V6.98295ZM13.9664 11.1193C13.4792 11.1193 13.0484 11.0398 12.6738 10.8807C12.3026 10.7183 12.0109 10.473 11.7988 10.1449C11.5867 9.81676 11.4806 9.39915 11.4806 8.89205C11.4806 8.47443 11.5519 8.11813 11.6944 7.82315C11.8369 7.52486 12.0358 7.28125 12.291 7.09233C12.5462 6.90341 12.8429 6.75923 13.1809 6.6598C13.5223 6.56037 13.8902 6.49574 14.2846 6.46591C14.7122 6.43276 15.0552 6.39299 15.3137 6.34659C15.5756 6.29687 15.7645 6.22893 15.8805 6.14276C15.9965 6.05327 16.0545 5.93561 16.0545 5.78977V5.76989C16.0545 5.57102 15.9783 5.41856 15.8258 5.3125C15.6734 5.20644 15.4778 5.15341 15.2392 5.15341C14.9773 5.15341 14.7636 5.21141 14.5978 5.32741C14.4354 5.4401 14.3377 5.61411 14.3045 5.84943H11.7789C11.8121 5.38542 11.9596 4.95786 12.2214 4.56676C12.4866 4.17235 12.8727 3.85748 13.3798 3.62216C13.8869 3.38352 14.5199 3.2642 15.2789 3.2642C15.8258 3.2642 16.3163 3.32884 16.7505 3.4581C17.1847 3.58404 17.5543 3.76136 17.8592 3.99006C18.1641 4.21544 18.3961 4.48059 18.5552 4.78551C18.7176 5.08712 18.7988 5.41525 18.7988 5.76989V11H16.2335V9.92614H16.1738C16.0214 10.2112 15.8358 10.4415 15.617 10.6172C15.4016 10.7929 15.1547 10.9205 14.8762 11C14.6011 11.0795 14.2979 11.1193 13.9664 11.1193ZM14.8613 9.3892C15.0701 9.3892 15.2657 9.34612 15.448 9.25994C15.6336 9.17377 15.7844 9.04948 15.9004 8.88707C16.0164 8.72467 16.0744 8.52746 16.0744 8.29545V7.65909C16.0015 7.68892 15.9236 7.71709 15.8407 7.74361C15.7612 7.77012 15.675 7.79498 15.5822 7.81818C15.4927 7.84138 15.3966 7.86293 15.2939 7.88281C15.1944 7.9027 15.09 7.92093 14.9806 7.9375C14.7685 7.97064 14.5945 8.02533 14.4586 8.10156C14.3261 8.17448 14.2266 8.26562 14.1603 8.375C14.0974 8.48106 14.0659 8.60038 14.0659 8.73295C14.0659 8.94508 14.1404 9.10748 14.2896 9.22017C14.4387 9.33286 14.6293 9.3892 14.8613 9.3892Z" fill="currentColor"/>
</svg>
