<svg width="20" height="22" viewBox="0 0 20 22" fill="none" xmlns="http://www.w3.org/2000/svg">
    <path fill-rule="evenodd" clip-rule="evenodd" d="M8 8C10.2 8 12 6.2 12 4C12 1.8 10.2 0 8 0C5.8 0 4 1.8 4 4C4 6.2 5.8 8 8 8ZM8 9C3.9 9 0 11.6 0 14C0 16 8 16 8 16C8 16 8.38763 16 8.99224 15.9787C8.35538 15.127 8 14.0856 8 13C8 11.6537 8.54653 10.3754 9.49865 9.44271C9.59821 9.34518 9.70136 9.25224 9.80774 9.16401C9.21777 9.05776 8.61111 9 8 9ZM13.0417 10.3051L13.0417 10.3051L13.0417 11V12C12.7588 12 12.4916 12.1103 12.2978 12.3001C12.1046 12.4893 12 12.7415 12 13C12 13.2585 12.1046 13.5107 12.2978 13.6999C12.4916 13.8897 12.7588 14 13.0417 14L13.0417 13.0596L13.0417 14H14V12H13.9991H13.9893H13.9796H13.9699H13.9603H13.9507H13.9411H13.9316H13.9221H13.9126H13.9032H13.8938H13.8845H13.8752H13.8659H13.8567H13.8475H13.8384H13.8293H13.8202H13.8112H13.8022H13.7933H13.7844H13.7756H13.7668H13.758H13.7493H13.7406H13.7319H13.7233H13.7148H13.7063H13.6978H13.6894H13.681H13.6727H13.6644H13.6561H13.6479H13.6398H13.6316H13.6236H13.6156H13.6076H13.5997H13.5918H13.5839H13.5761H13.5684H13.5607H13.5531H13.5455H13.5379H13.5304H13.5229H13.5155H13.5082H13.5009H13.4936H13.4864H13.4792H13.4721H13.4651H13.458H13.4511H13.4442H13.4373H13.4305H13.4237H13.417H13.4104H13.4038H13.3972H13.3907H13.3843H13.3779H13.3715H13.3653H13.359H13.3528H13.3467H13.3406H13.3346H13.3287H13.3227H13.3169H13.3111H13.3053H13.2997H13.294H13.2884H13.2829H13.2775H13.2721H13.2667H13.2614H13.2562H13.251H13.2459H13.2408H13.2358H13.2309H13.226H13.2211H13.2164H13.2117H13.207H13.2024H13.1979H13.1934H13.189H13.1846H13.1804H13.1761H13.172H13.1678H13.1638H13.1598H13.1559H13.152H13.1482H13.1445H13.1408H13.1372H13.1337H13.1302H13.1268H13.1234H13.1201H13.1169H13.1137H13.1106H13.1076H13.1046H13.1017H13.0989H13.0961H13.0934H13.0908H13.0882H13.0857H13.0833H13.0809H13.0786H13.0763H13.0742H13.0721H13.07H13.0681H13.0662H13.0644H13.0626H13.0609H13.0593H13.0577H13.0563H13.0548H13.0535H13.0522H13.051H13.0499H13.0489H13.0479H13.047H13.0461H13.0454H13.0447H13.044H13.0435H13.043H13.0426H13.0423H13.042H13.0418H13.0417L13.0417 11L13.0417 10H13.0418H13.042H13.0423H13.0426H13.043H13.0435H13.044H13.0447H13.0454H13.0461H13.047H13.0479H13.0489H13.0499H13.051H13.0522H13.0535H13.0548H13.0563H13.0577H13.0593H13.0609H13.0626H13.0644H13.0662H13.0681H13.07H13.0721H13.0742H13.0763H13.0786H13.0809H13.0833H13.0857H13.0882H13.0908H13.0934H13.0961H13.0989H13.1017H13.1046H13.1076H13.1106H13.1137H13.1169H13.1201H13.1234H13.1268H13.1302H13.1337H13.1372H13.1408H13.1445H13.1482H13.152H13.1559H13.1598H13.1638H13.1678H13.172H13.1761H13.1804H13.1846H13.189H13.1934H13.1979H13.2024H13.207H13.2117H13.2164H13.2211H13.226H13.2309H13.2358H13.2408H13.2459H13.251H13.2562H13.2614H13.2667H13.2721H13.2775H13.2829H13.2884H13.294H13.2997H13.3053H13.3111H13.3169H13.3227H13.3287H13.3346H13.3406H13.3467H13.3528H13.359H13.3653H13.3715H13.3779H13.3843H13.3907H13.3972H13.4038H13.4104H13.417H13.4237H13.4305H13.4373H13.4442H13.4511H13.458H13.4651H13.4721H13.4792H13.4864H13.4936H13.5009H13.5082H13.5155H13.5229H13.5304H13.5379H13.5455H13.5531H13.5607H13.5684H13.5761H13.5839H13.5918H13.5997H13.6076H13.6156H13.6236H13.6316H13.6398H13.6479H13.6561H13.6644H13.6727H13.681H13.6894H13.6978H13.7063H13.7148H13.7233H13.7319H13.7406H13.7493H13.758H13.7668H13.7756H13.7844H13.7933H13.8022H13.8112H13.8202H13.8293H13.8384H13.8475H13.8567H13.8659H13.8752H13.8845H13.8938H13.9032H13.9126H13.9221H13.9316H13.9411H13.9507H13.9603H13.9699H13.9796H13.9893H13.9991H14V9C14 8.44771 14.4477 8 15 8C15.5523 8 16 8.44771 16 9V10H16.0025H16.0154H16.0283H16.0413H16.0542H16.0671H16.08H16.0929H16.1058H16.1187H16.1316H16.1446H16.1575H16.1704H16.1833H16.1962H16.2091H16.222H16.2349H16.2477H16.2606H16.2735H16.2864H16.2993H16.3121H16.325H16.3378H16.3507H16.3636H16.3764H16.3892H16.4021H16.4149H16.4277H16.4405H16.4533H16.4661H16.4789H16.4917H16.5045H16.5172H16.53H16.5427H16.5555H16.5682H16.5809H16.5937H16.6064H16.6191H16.6318H16.6444H16.6571H16.6698H16.6824H16.695H16.7077H16.7203H16.7329H16.7455H16.758H16.7706H16.7832H16.7957H16.8082H16.8207H16.8333H16.8457H16.8582H16.8707H16.8831H16.8956H16.908H16.9204H16.9328H16.9451H16.9575H16.9698H16.9822H16.9945H17.0068H17.019H17.0313H17.0436H17.0558H17.068H17.0802H17.0924H17.1045H17.1167H17.1288H17.1409H17.153H17.165H17.1771H17.1891H17.2011H17.2131H17.225H17.237H17.2489H17.2608H17.2727H17.2846H17.2964H17.3082H17.32H17.3318H17.3436H17.3553H17.367H17.3787H17.3903H17.402H17.4136H17.4252H17.4368H17.4483H17.4598H17.4713H17.4828H17.4942H17.5056H17.517H17.5284H17.5398H17.5511H17.5624H17.5736H17.5849H17.5961H17.6073H17.6184H17.6295H17.6406H17.6517H17.6628H17.6738H17.6848H17.6957H17.7066H17.7175H17.7284H17.7393H17.7501H17.7609H17.7716H17.7823H17.793H17.8037H17.8143H17.8249H17.8355H17.846H17.8565H17.867H17.8774H17.8878H17.8982H17.9085H17.9188H17.9291H17.9393H17.9495H17.9597H17.9698H17.9799H17.99H18C18.5523 10 19 10.4477 19 11C19 11.5523 18.5523 12 18 12H17.99H17.9799H17.9698H17.9597H17.9495H17.9393H17.9291H17.9188H17.9085H17.8982H17.8878H17.8774H17.867H17.8565H17.846H17.8355H17.8249H17.8143H17.8037H17.793H17.7823H17.7716H17.7609H17.7501H17.7393H17.7284H17.7175H17.7066H17.6957H17.6848H17.6738H17.6628H17.6517H17.6406H17.6295H17.6184H17.6073H17.5961H17.5849H17.5736H17.5624H17.5511H17.5398H17.5284H17.517H17.5056H17.4942H17.4828H17.4713H17.4598H17.4483H17.4368H17.4252H17.4136H17.402H17.3903H17.3787H17.367H17.3553H17.3436H17.3318H17.32H17.3082H17.2964H17.2846H17.2727H17.2608H17.2489H17.237H17.225H17.2131H17.2011H17.1891H17.1771H17.165H17.153H17.1409H17.1288H17.1167H17.1045H17.0924H17.0802H17.068H17.0558H17.0436H17.0313H17.019H17.0068H16.9945H16.9822H16.9698H16.9575H16.9451H16.9328H16.9204H16.908H16.8956H16.8831H16.8707H16.8582H16.8457H16.8333H16.8207H16.8082H16.7957H16.7832H16.7706H16.758H16.7455H16.7329H16.7203H16.7077H16.695H16.6824H16.6698H16.6571H16.6444H16.6318H16.6191H16.6064H16.5937H16.5809H16.5682H16.5555H16.5427H16.53H16.5172H16.5045H16.4917H16.4789H16.4661H16.4533H16.4405H16.4277H16.4149H16.4021H16.3892H16.3764H16.3636H16.3507H16.3378H16.325H16.3121H16.2993H16.2864H16.2735H16.2606H16.2477H16.2349H16.222H16.2091H16.1962H16.1833H16.1704H16.1575H16.1446H16.1316H16.1187H16.1058H16.0929H16.08H16.0671H16.0542H16.0413H16.0283H16.0154H16.0025H16V14H16.9583C17.7585 14 18.5299 14.3112 19.1018 14.8714C19.6744 15.4324 20 16.1976 20 17C20 17.8024 19.6744 18.5676 19.1018 19.1286C18.5299 19.6888 17.7585 20 16.9583 20H16V21C16 21.5523 15.5523 22 15 22C14.4477 22 14 21.5523 14 21V20H11C10.4477 20 10 19.5523 10 19C10 18.4477 10.4477 18 11 18H14V16H13.0417C12.2415 16 11.4701 15.6888 10.8982 15.1286C10.3256 14.5676 10 13.8024 10 13C10 12.1976 10.3256 11.4324 10.8982 10.8714C11.4701 10.3112 12.2415 10 13.0417 10V10.3051ZM16 18V16H16.9583C17.2412 16 17.5084 16.1103 17.7022 16.3001C17.8954 16.4893 18 16.7415 18 17C18 17.2585 17.8954 17.5107 17.7022 17.6999C17.5084 17.8897 17.2412 18 16.9583 18H16Z" fill="currentColor"/>
</svg>
