<svg width="24" height="24" viewBox="0 0 24 24" fill="none" xmlns="http://www.w3.org/2000/svg">
    <path fill-rule="evenodd" clip-rule="evenodd" d="M12.3392 2.97053L20.5892 6.27053C20.91 6.39886 21.1667 6.77469 21.1667 7.12303V10.1664C21.1667 10.3245 21.1261 10.4737 21.0548 10.6039C20.1136 10.2147 19.0819 10 18 10C16.5338 10 15.1597 10.3945 13.978 11.083H3.75004C3.24587 11.083 2.83337 10.6705 2.83337 10.1664V7.12303C2.83337 6.77469 3.09004 6.39886 3.41087 6.27053L11.6609 2.97053C11.8442 2.89719 12.1559 2.89719 12.3392 2.97053ZM13.9772 11.0835H12.9166V11.8224C13.2488 11.5488 13.6033 11.3014 13.9772 11.0835ZM11.0833 13.9775V11.0835H9.25V17.5H7.41671V11.0835H5.58337V17.5H3.75004C3.24587 17.5 2.83337 17.9125 2.83337 18.4167V21.1667H10.6512C10.2322 20.1955 10 19.1249 10 18C10 16.5335 10.3946 15.1593 11.0833 13.9775ZM10.625 7.41636C10.625 8.17719 11.2392 8.79136 12 8.79136C12.7609 8.79136 13.375 8.17719 13.375 7.41636C13.375 6.65553 12.7609 6.04136 12 6.04136C11.2392 6.04136 10.625 6.65553 10.625 7.41636Z" fill="currentColor"/>
    <path fill-rule="evenodd" clip-rule="evenodd" d="M18.3159 13C18.7042 13 19.0294 13.2943 19.068 13.6807C19.128 14.2807 19.8321 14.5723 20.2988 14.1904C20.5994 13.9445 21.0374 13.9663 21.3121 14.2409L21.7587 14.6876C22.0334 14.9622 22.0552 15.4004 21.8092 15.701C21.4273 16.1678 21.719 16.8721 22.3192 16.9321C22.7057 16.9707 23 17.296 23 17.6844V18.3162C23 18.7045 22.7057 19.0296 22.3194 19.0682C21.7194 19.1282 21.4278 19.8321 21.8096 20.2988C22.0555 20.5993 22.0336 21.0372 21.7591 21.3117L21.3122 21.7586C21.0376 22.0332 20.5996 22.055 20.299 21.8091C19.8322 21.4272 19.1281 21.719 19.068 22.3191C19.0294 22.7056 18.7042 23 18.3157 23H17.6841C17.2957 23 16.9705 22.7057 16.9319 22.3192C16.8719 21.7191 16.1677 21.4273 15.701 21.8093C15.4004 22.0552 14.9623 22.0333 14.6877 21.7587L14.2409 21.3119C13.9663 21.0374 13.9445 20.5994 14.1904 20.2989C14.5722 19.8322 14.2806 19.1282 13.6806 19.0682C13.2942 19.0296 13 18.7045 13 18.3162V17.6844C13 17.296 13.2943 16.9707 13.6808 16.9321C14.2811 16.8721 14.5727 16.1678 14.1907 15.7009C13.9448 15.4003 13.9666 14.9621 14.2413 14.6874L14.6879 14.2408C14.9625 13.9662 15.4006 13.9444 15.7011 14.1903C16.1678 14.5721 16.8719 14.2806 16.9319 13.6806C16.9705 13.2942 17.2957 13 17.684 13H18.3159ZM18.0001 20.0001C19.1047 20.0001 20.0001 19.1047 20.0001 18.0001C20.0001 16.8955 19.1047 16.0001 18.0001 16.0001C16.8955 16.0001 16.0001 16.8955 16.0001 18.0001C16.0001 19.1047 16.8955 20.0001 18.0001 20.0001Z" fill="currentColor"/>
</svg>
