<svg width="22" height="22" viewBox="0 0 22 22" fill="none" xmlns="http://www.w3.org/2000/svg">
<path d="M20.1667 17.4167V20.1667H1.83337V17.4167C1.83337 16.9125 2.24587 16.5 2.75004 16.5H19.25C19.7542 16.5 20.1667 16.9125 20.1667 17.4167Z" fill="currentColor"/>
<path d="M6.41671 10.0835H4.58337V16.5002H6.41671V10.0835Z" fill="currentColor"/>
<path d="M10.0833 10.0835H8.25V16.5002H10.0833V10.0835Z" fill="currentColor"/>
<path d="M13.75 10.0835H11.9166V16.5002H13.75V10.0835Z" fill="currentColor"/>
<path d="M17.4167 10.0835H15.5834V16.5002H17.4167V10.0835Z" fill="currentColor"/>
<path d="M19.5892 5.27053L11.3392 1.97053C11.1559 1.89719 10.8442 1.89719 10.6609 1.97053L2.41087 5.27053C2.09004 5.39886 1.83337 5.77469 1.83337 6.12303V9.16636C1.83337 9.67053 2.24587 10.083 2.75004 10.083H19.25C19.7542 10.083 20.1667 9.67053 20.1667 9.16636V6.12303C20.1667 5.77469 19.91 5.39886 19.5892 5.27053ZM11 7.79136C10.2392 7.79136 9.62504 7.17719 9.62504 6.41636C9.62504 5.65553 10.2392 5.04136 11 5.04136C11.7609 5.04136 12.375 5.65553 12.375 6.41636C12.375 7.17719 11.7609 7.79136 11 7.79136Z" fill="currentColor"/>
</svg>
