<svg viewBox="0 0 15 11" fill="none" xmlns="http://www.w3.org/2000/svg">
    <path d="M14.825 7.34691C14.825 7.70722 14.1044 7.94743 13.2637 8.06753C12.7232 7.04665 11.6422 6.26597 10.3812 5.7255C10.5013 5.54534 10.6214 5.42524 10.7415 5.24508H11.2219C13.0835 5.18503 14.825 6.32602 14.825 7.34691ZM4.49605 5.18503H4.01563C2.15402 5.18503 0.412506 6.32602 0.412506 7.34691C0.412506 7.70722 1.13313 7.94743 1.97386 8.06753C2.51433 7.04665 3.59527 6.26597 4.85636 5.7255L4.49605 5.18503ZM7.61876 5.78555C8.9399 5.78555 10.0208 4.70461 10.0208 3.38347C10.0208 2.06232 8.9399 0.981384 7.61876 0.981384C6.29761 0.981384 5.21667 2.06232 5.21667 3.38347C5.21667 4.70461 6.29761 5.78555 7.61876 5.78555ZM7.61876 6.38607C5.15662 6.38607 2.81459 7.94743 2.81459 9.38868C2.81459 10.5897 7.61876 10.5897 7.61876 10.5897C7.61876 10.5897 12.4229 10.5897 12.4229 9.38868C12.4229 7.94743 10.0809 6.38607 7.61876 6.38607ZM11.0417 4.58451H11.2219C12.2428 4.58451 13.0234 3.80383 13.0234 2.78295C13.0234 1.76206 12.2428 0.981384 11.2219 0.981384C10.9216 0.981384 10.6814 1.04144 10.4412 1.16154C10.9216 1.76206 11.2219 2.54274 11.2219 3.38347C11.2219 3.80383 11.1618 4.2242 11.0417 4.58451ZM4.01563 4.58451H4.19579C4.07568 4.2242 4.01563 3.80383 4.01563 3.38347C4.01563 2.54274 4.31589 1.76206 4.79631 1.16154C4.5561 1.04144 4.31589 0.981384 4.01563 0.981384C2.99475 0.981384 2.21407 1.76206 2.21407 2.78295C2.21407 3.80383 2.99475 4.58451 4.01563 4.58451Z" fill="currentColor"/>
</svg>
